<?xml version="1.0" standalone="no"?>
<!DOCTYPE svg PUBLIC "-//W3C//DTD SVG 1.1//EN" "http://www.w3.org/Graphics/SVG/1.1/DTD/svg11.dtd" >
<svg xmlns="http://www.w3.org/2000/svg" xmlns:xlink="http://www.w3.org/1999/xlink" version="1.1">
<metadata>
Created by FontForge 20170924 at Sun May 10 18:41:42 2020
 By www-data
</metadata>
<defs>
<font id="Myfont-Regular" horiz-adv-x="250" >
  <font-face 
    font-family="Myfont"
    font-weight="400"
    font-stretch="normal"
    units-per-em="1000"
    panose-1="2 0 5 3 0 0 0 0 0 0"
    ascent="800"
    descent="-200"
    x-height="411"
    cap-height="800"
    bbox="33 -200 764 800"
    underline-thickness="50"
    underline-position="-150"
    unicode-range="U+000D-00A0"
  />
<missing-glyph horiz-adv-x="364" 
d="M33 0v666h265v-666h-265zM66 33h199v600h-199v-600z" />
    <glyph glyph-name=".notdef" horiz-adv-x="364" 
d="M33 0v666h265v-666h-265zM66 33h199v600h-199v-600z" />
    <glyph glyph-name=".null" 
 />
    <glyph glyph-name=".null" 
 />
    <glyph glyph-name="nonmarkingreturn" horiz-adv-x="333" 
 />
    <glyph glyph-name="CR" unicode="&#xd;" 
 />
    <glyph glyph-name="space" unicode=" " 
 />
    <glyph glyph-name="one" unicode="1" horiz-adv-x="340" 
d="M210 680q14 6 18 6h1q7 0 22 -13.5t15 -19.5q0 -7 7 -11q12 -5 12 -26q0 -12 -6 -23q-7 -15 -12 -82q-3 -46 -10 -76t-11 -68q-4 -55 -16 -82q-10 -22 -10 -42q0 -17 -8 -27q-6 -8 -10 -54q-3 -42 -10 -55q-4 -8 -8 -93q-3 -64 -9 -88.5t-20 -29.5q-9 -3 -28 -3
q-39 0 -50 8q-12 10 -17 27q-5 20 -5 53q0 43 7 67q7 22 11 73t14 60q10 10 14 59q4 50 9 55q3 4 9 43.5t9 43.5q6 9 10 73q4 67 13 83q11 17 14 55q7 69 45 87z" />
    <glyph glyph-name="eight" unicode="8" horiz-adv-x="540" 
d="M344 189q-19 32 -28 32q-4 0 -9 -6q-8 -8 -21 -8q-16 0 -23 -9q-16 -20 -28 -33q-18 -20 -24 -40t-7 -58q0 -61 19 -61q8 0 40 28q12 11 31 24.5t27.5 24.5t21.5 36l19 39zM325 535q-9 7 -27 7q-15 0 -25 -14q-2 -4 -35.5 -43.5t-35.5 -51.5q-1 -3 -1 -11q0 -19 8 -37
t17 -18q4 0 22 18t41 18q19 0 25.5 7.5t13.5 36.5q6 29 6 51q0 31 -9 37zM326 697q8 9 17 9q10 0 19 -10q7 -9 38 -25q41 -20 48 -45q3 -12 12 -12q6 0 6.5 -4t-4.5 -9q-6 -6 3 -23q7 -12 11 -54q1 -8 1 -21q0 -22 -9 -41q-6 -15 -15.5 -59t-16.5 -58q-10 -22 -10 -36
q0 -23 18 -48q18 -26 29.5 -66.5t11.5 -76.5q0 -24 -4 -37q-4 -14 -81 -93t-103 -96q-23 -15 -59 -15q-35 0 -60 15q-21 14 -45.5 40t-34.5 44q-10 19 -10 97q0 79 5.5 104.5t26.5 52.5q22 28 22 38q0 9 -26 35q-27 27 -34 54q-7 26 -18 39q-9 10 -9 25q0 16 10 25
q10 8 10 19q0 13 21.5 47.5t50.5 69.5q33 40 33 49v3l-1 2q0 7 51 29q38 16 63 20q24 3 33 12z" />
    <glyph glyph-name="A" unicode="A" horiz-adv-x="745" 
d="M476 560q-3 8 -6 8q-4 0 -13 -32q-3 -10 -16.5 -52.5t-19.5 -63.5q-23 -74 -23 -89q0 -10 109 -28l10.5 -1.5t5.5 0t2 2.5t-1 5t-24 125.5t-24 125.5zM415 775q3 4 7 4q6 0 30 -7q41 -12 82.5 -75.5t65.5 -152.5q40 -141 70 -337q19 -122 19 -257q0 -19 -1 -23
q-2 -8 -5.5 -10.5t-17.5 -2.5h-15q-64 0 -76 26q-7 14 -12 111q-3 62 -12 129t-16 78q-6 9 -130 19q-19 3 -26 -2t-43 -122q-49 -159 -64 -184q-14 -23 -41 -25h-15h-8q-44 0 -55 8q-6 4 -6 8t12 36q31 74 71 215q10 36 10 47q0 6 -2 8q-4 6 -53 15q-88 15 -114 28
q-12 6 -12 10q0 10 107 11q98 3 102 8q6 8 39.5 83.5t44.5 107.5q46 124 56 199q5 41 8 47z" />
    <glyph glyph-name="B" unicode="B" horiz-adv-x="685" 
d="M337 299q-41 6 -77 9l-39 3l4 -66q8 -168 19 -210q7 -24 30 -45q25 -25 47 -25q12 0 41 8q70 21 111.5 68.5t41.5 103.5q0 42 -25 79q-39 61 -153 75zM338 602q-18 11 -30.5 13t-63.5 4l-69 2l3 -60q7 -112 27 -154q8 -16 24 -21.5t61 -7.5l55 -2l11 14q13 16 22 51t9 65
q0 67 -49 96zM101 656q21 3 62 3q113 0 201 -14q53 -9 78.5 -19.5t41.5 -30.5q42 -53 42 -105q0 -46 -30 -109q-16 -32 -16 -41q0 -8 30 -30q65 -46 100 -99q19 -29 19 -72q0 -25 -6 -52q-16 -68 -66 -114q-37 -34 -88.5 -47t-151.5 -13q-67 0 -73 -7q-3 -3 -3 -11
q0 -14 7 -43q11 -48 11 -49q0 -3 -46 -3h-46l-3 18q-4 20 -4 94q0 76 9 103q6 19 6 41q0 26 -4 74q-13 168 -26 192q-9 19 -48 19q-11 0 -19.5 5t-8.5 10q0 3 4 6q2 1 24.5 7t27.5 13t5 33q0 25 -5 40q-6 19 -18 86q-10 55 -18 74.5t-22 19.5q-9 0 -9 3q0 4 13 9.5t30 8.5z
" />
    <glyph glyph-name="C" unicode="C" horiz-adv-x="736" 
d="M205 733q10 15 32 15q21 0 64 -10.5t62 -19.5q21 -10 44.5 -36.5t23.5 -39.5q0 -10 -2.5 -11t-15.5 1q-17 3 -46 16q-25 12 -40 12q-16 0 -47 -22q-42 -30 -59.5 -57.5t-24.5 -72t-7 -136.5q0 -81 4.5 -208t8.5 -162q3 -32 14.5 -39.5t62.5 -7.5q7 0 24.5 0.5t28.5 0.5
q104 2 128 10q29 10 71 54q6 7 34 38q18 19 25 23.5t20 4.5q18 0 40.5 -13t27.5 -27q5 -10 -1 -26q-6 -17 -34 -46t-58 -48q-25 -17 -37.5 -21.5t-43.5 -7.5q-40 -4 -124 -4q-89 0 -149 5q-97 9 -124 38q-20 21 -21 149q0 113 -21 269q-10 82 -10 137q0 53 8 80
q17 57 85 110q44 35 57 52z" />
    <glyph glyph-name="D" unicode="D" horiz-adv-x="794" 
d="M542 620q-17 13 -77 13q-35 0 -69 -6q-48 -9 -96.5 -22.5t-56.5 -20.5q-9 -8 -9 -17l4 -32q7 -46 27 -124t34 -112q29 -72 38 -197q5 -83 8 -85q1 -1 3 -1q12 0 51 11t56 20q62 32 120 92.5t71 109.5q2 6 2 18q0 32 -35 110q-19 43 -23 59t-6 62q-2 53 -11.5 80t-30.5 42
zM101 721q3 7 14 7q9 0 15 -1q51 -5 80 -53q6 -10 9 -13.5t9 -6.5t16 -3q13 0 89 13q60 11 112 11q84 0 133 -43q44 -40 78 -152q22 -71 42 -119q40 -99 40 -155q0 -83 -71.5 -163t-168.5 -106q-28 -7 -68 -7q-43 0 -64 8q-15 5 -21 5q-9 0 -12.5 -8.5t-6.5 -35.5
q-4 -35 -8.5 -44t-17.5 -9q-16 0 -48.5 17.5t-38.5 29.5q-5 8 -5 16q0 10 9 49q8 34 8 48q0 22 -16.5 36.5t-73.5 51.5q-48 31 -62.5 41.5t-14.5 16.5q0 3 5 3q15 0 72 -23q40 -17 64 -21l19 -3v43q0 92 -38 189q-39 102 -60 210q-20 98 -20 159q0 10 1 12z" />
    <glyph glyph-name="E" unicode="E" horiz-adv-x="814" 
d="M179 690q3 8 22 4q57 -11 89 -36q19 -15 39.5 -19t98.5 -7q119 -4 179 -26q33 -13 33 -26q0 -4 -3 -7t-11 -3q-10 0 -40 6q-52 10 -166 10q-61 0 -80 -4l-19 -4l3 -27q0 -3 5 -49t10.5 -84t9.5 -44q6 -6 111 -12q116 -6 141 -10q60 -9 60 -25q0 -7 -11 -13
q-16 -8 -113 -8q-68 0 -116 4q-68 4 -73 4h-3q-3 -3 -8 -102q-10 -140 -11 -147q-2 -26 -2 -32q0 -19 11 -22.5t53 -3.5h7h14q48 0 110 -6q54 -4 59 -4q13 0 35 4q15 4 32 4q10 0 14 -1q28 -5 57 -16t36 -18q6 -7 6.5 -10t-6.5 -11q-16 -18 -65 -18q-33 0 -64 5
q-115 16 -210 16q-30 0 -44 -1l-63 -3l-6 -21q-1 -4 -4.5 -18.5t-5.5 -20.5q-5 -20 -9.5 -26.5t-17.5 -6.5q-11 0 -29 3q-40 8 -43 12q-1 2 -1 20q0 24 1 40q2 32 2 36q0 21 -8 29q-7 7 -7 19q0 20 15 27q15 8 20.5 17t9.5 36q6 33 6 106q0 86 -7 100q-7 12 -35 26l-28 14
l22 6q22 6 29.5 18.5t7.5 42.5q0 37 -8.5 93t-15.5 64q-9 9 -47 9q-77 2 -88 13q-1 1 -1 3q0 12 59 20q42 7 54 14q9 5 9 16q0 10 -1 17t-1 20q0 12 1 14z" />
    <glyph glyph-name="F" unicode="F" horiz-adv-x="759" 
d="M175 730q-2 16 -2 18q0 12 11 12q2 0 32 -6q9 -2 25.5 -5t23 -4.5t17 -7t20.5 -14.5q19 -17 30.5 -22.5t32.5 -5.5q16 0 64 5q77 9 142 9q110 0 127 -20q3 -5 3 -7q0 -24 -232 -30q-146 -4 -146 -9q0 -4 7 -66.5t8 -106.5l1 -85h88q84 0 108 -7q17 -5 33 -16t16 -17
q0 -1 -1 -2q-3 -3 -116 -7q-113 -6 -116 -9q-10 -10 -22 -222q-7 -112 -12 -151.5t-16 -57.5q-10 -17 -26 -18h-3q-16 0 -47.5 10.5t-38.5 18.5q-3 3 -3 15q0 16 4 44q8 58 8 205q0 128 -5 152t-34 33q-21 6 -21 17q0 15 31 15q24 0 30.5 9t6.5 44v28q-2 129 -17 157
q-10 17 -75 28q-47 8 -48 9q-5 3 -5 6q0 14 71 20q28 2 37.5 7.5t9.5 20.5q0 8 -1 13z" />
    <glyph glyph-name="G" unicode="G" horiz-adv-x="700" 
d="M284 723q36 9 61 9q29 0 66 -12q55 -18 92.5 -40.5t37.5 -36.5q0 -8 -13 -8q-14 0 -30 9q-15 9 -71 9q-67 0 -96.5 -19t-58.5 -79q-39 -84 -63 -194q-24 -108 -24 -193v-29q2 -70 10 -91t39 -37q24 -12 85 -13q94 0 117 25q9 10 9 54v24q0 69 -5 79l-5 12l-26 -19
q-50 -36 -70 -36q-8 0 -17 3q-20 6 -56.5 24t-36.5 23q0 13 73 66q76 55 145 78q60 20 97 20q13 0 31 -4q17 -4 40 -20t27 -25q1 -1 1 -4q0 -19 -53 -33q-28 -7 -33 -11t-5 -21q0 -26 9 -98q10 -77 10 -117q0 -37 -11 -58q-10 -22 -30 -36q-16 -11 -42 -11q-4 0 -56 2
q-92 4 -154 23t-135 67q-55 36 -72 73t-17 121v11q0 79 12 139q45 247 118 320q37 37 100 54z" />
    <glyph glyph-name="H" unicode="H" horiz-adv-x="716" 
d="M543 760q2 2 6 2q14 0 46.5 -11.5t42.5 -20.5q23 -20 23 -138q0 -74 -12 -135q-11 -58 -11 -85t10 -44q9 -15 9 -19t-14 -4q-16 0 -20.5 -13.5t-10.5 -76.5q-14 -134 -39 -240q-10 -42 -14 -53.5t-12 -11.5q-4 0 -20 7q-22 10 -44.5 29.5t-22.5 31.5q0 23 15 98
q19 97 36 246q4 24 0 24q-17 0 -107 -12t-106 -16q-26 -7 -34 -25q-10 -23 -67 -301q-22 -109 -26 -115q-3 -4 -11 -4q-22 0 -58 17t-40 31q-2 8 -2 16q0 30 29 159q18 80 29 150q3 24 3 40q0 21 -7.5 31.5t-28.5 19.5q-29 14 -29 22t26 11q46 6 56 43q4 15 10 123
q10 169 27 190q5 5 20 5q25 0 44 -9q13 -6 17.5 -31.5t6.5 -112.5q4 -113 9 -140l7 -40h39q32 0 118 4l77 3l6 21q11 43 18 232q4 97 6 102z" />
    <glyph glyph-name="I" unicode="I" horiz-adv-x="426" 
d="M119 779l26 20l87 1h88l19 -19q19 -21 24 -31q6 -10 6 -30q0 -21 -7 -32q-6 -12 -31 -35.5t-49 -39.5q-20 -13 -26 -27t-6 -48q0 -72 -20 -179q-20 -100 -34 -257q-16 -190 -23 -208q-5 -12 -19 -12q-17 0 -59 20l-41 18l3 37q1 10 8 129q9 160 38 319q21 114 21 172
q0 57 -20 91q-28 48 -28 56q0 5 7 17q14 20 36 38z" />
    <glyph glyph-name="J" unicode="J" horiz-adv-x="607" 
d="M256 781l32 19h75q77 0 79 -7v-1l1 -2q0 -19 -49 -52q-29 -20 -38 -29q-6 -6 -6 -8.5t6 -10.5q5 -6 45 -38q42 -34 68 -81t46 -127q39 -156 39 -271q0 -59 -10 -95q-18 -70 -61 -126q-42 -52 -68 -52q-5 0 -8 1q-38 8 -111.5 47.5t-104.5 68.5q-39 36 -39 58q0 13 15 13
q1 0 3 -0.5t4 -0.5q53 -8 108 -69q16 -17 33 -17q20 0 46 23q44 40 62 106q9 35 9 98q0 94 -17 204t-40 157q-13 25 -35.5 43.5t-39.5 18.5q-16 0 -63 -46q-48 -47 -65.5 -60t-30.5 -13q-33 0 -71 36q-14 13 -14 18q0 3 5 13q15 29 82.5 91.5t112.5 90.5z" />
    <glyph glyph-name="K" unicode="K" horiz-adv-x="643" 
d="M93 696l-4 104h83l10 -23q20 -44 28 -102t11 -173q4 -118 7 -118l60 60q46 48 73 84t66 100q29 47 44 65t31 25q8 4 20 4q28 0 48 -20q15 -15 15 -38q0 -33 -34 -101q-39 -81 -152 -197l-74 -76l36 -38q55 -58 115 -178q25 -50 47 -86q19 -30 19 -46v-6q-2 -22 -14 -22
q-9 0 -19 10q-41 38 -116 180q-50 93 -68.5 116t-45.5 23q-20 0 -29 -17t-22 -86q-42 -210 -71 -219h-3q-31 0 -79 25q-20 11 -20 29t13 54q35 105 35 240q0 95 -19 146q-10 28 -10 36q0 10 11 23q7 7 9 18t2 47v20q0 67 -3 137z" />
    <glyph glyph-name="L" unicode="L" horiz-adv-x="471" 
d="M137 781l5 19h63l-4 -112q-8 -249 -24 -411q-9 -87 -9 -147q0 -53 7 -88l9 -50l68 -3q70 -3 86 -11q24 -12 49.5 -40t25.5 -41q0 -3 -2 -5q-6 -6 -58 -10.5t-113 -4.5q-57 0 -73 2t-35 12q-52 26 -63 68q-5 18 -10 103.5t-5 151.5q0 111 26 241q7 37 23.5 150t33.5 176z
" />
    <glyph glyph-name="M" unicode="M" horiz-adv-x="785" 
d="M534 727l49 73h89l12 -24q34 -62 46 -159q4 -28 4 -181q0 -296 -9 -389q-7 -68 -29 -134q-22 -67 -34 -88.5t-29 -23.5h-5q-13 0 -47 34q-36 36 -36 51q0 9 10 29q33 67 56 172q9 43 9 87q0 9 -2 97q-1 30 -1 83q0 73 5 141q4 43 4 78q0 13 -1 14h-1q-8 0 -45 -46.5
t-63 -88.5q-18 -30 -18 -51q0 -3 0.5 -11.5t0.5 -14.5l1 -47l-34 2q-3 0 -9 0.5t-8 0.5q-16 0 -23 -7q-8 -8 -16 -8q-17 0 -52 29q-26 21 -34 30t-8 18q0 8 11 28q16 27 16 40q0 14 -25 46q-25 34 -76 87t-58 53h-1q-4 -4 -6 -397l-1 -393q-16 -16 -24 -23l-17 10
q-18 11 -49 40l-32 29l8 76q16 155 23 430q6 207 13 239q6 24 6 36q0 19 -24 47q-20 25 -20 37q0 8 4 10t23 2q30 0 62.5 -24.5t128.5 -119.5q108 -107 118 -107l1 1h1q18 11 136 187z" />
    <glyph glyph-name="N" unicode="N" horiz-adv-x="809" 
d="M162 773l3 27h102l8 -16q20 -44 124.5 -314t104.5 -277q0 -5 9 -12q3 -3 6 -3q16 0 34.5 55t26.5 103q25 158 54 266q22 86 32 111t22 28q8 2 12 2q22 0 40 -18q12 -12 12 -37q0 -22 -17.5 -126.5t-29.5 -155.5q-1 -3 -28 -134q-14 -73 -47 -173q-56 -164 -73 -181
q-1 -1 -4 -1q-14 0 -57 29t-60 51q-17 21 -17 38q0 10 8 36q9 27 9 42q0 10 -1 15q-7 48 -106 314q-36 97 -46 121t-14 24h-1q-5 -3 -9.5 -32t-19.5 -163q-26 -228 -46 -320q-22 -102 -43 -102q-15 0 -54.5 36t-39.5 50q0 13 10 41q18 54 47 255q5 36 16.5 107t18 120
t9.5 102q1 13 2 35t1.5 36t1.5 21z" />
    <glyph glyph-name="O" unicode="O" horiz-adv-x="777" 
d="M448 728q-26 9 -46 9q-34 0 -72 -24q-40 -24 -60.5 -57t-50.5 -122q-35 -102 -35 -170q0 -26 3 -62q5 -57 18.5 -136.5t22.5 -112.5q7 -27 20 -40q12 -12 30 -12q2 0 9 0.5t11 0.5q51 4 117 36.5t102 72.5q21 22 49 71t44 90q14 34 16 105q0 5 0.5 17t0.5 17
q0 113 -19 170q-9 27 -27 52q-17 22 -60 53t-73 42zM249 779q33 14 47.5 17t55.5 3h11q44 0 72 -8t69 -32q172 -102 213 -372q5 -32 5 -53q0 -41 -19 -124q-24 -112 -56.5 -166t-101.5 -94q-97 -56 -166 -56q-78 0 -162 71q-60 51 -92.5 120.5t-54.5 192.5q-15 80 -15 139
q0 109 61 237q25 54 49 76.5t84 48.5z" />
    <glyph glyph-name="P" unicode="P" horiz-adv-x="547" 
d="M354 644q-13 12 -43 12q-21 0 -27.5 -2.5t-13.5 -11.5q-8 -13 -8 -24q0 -24 24 -40q25 -18 40 -18q11 0 24 11q10 9 13 15.5t3 22.5q0 23 -12 35zM124 762q39 13 82 13q85 0 170 -40q39 -19 77 -57q37 -39 37 -45q0 -7 -20 -63t-28 -72q-7 -15 -23 -21t-55 -9
q-43 -4 -43 -6q0 -1 15 -67q17 -66 17 -105q0 -46 -25 -145q-20 -81 -48 -159q-23 -63 -25 -72q-1 -6 -19 -6q-23 0 -54.5 9t-37.5 19q-4 8 -4 14q0 14 15 53q9 23 20 69.5t26 117.5t16 74q9 40 9 85q0 51 -14 98q-11 35 -35 58q-20 19 -20 23q0 1 6 9q7 7 7 26q0 16 -1 29
q-4 74 -26 74q-19 0 -52.5 24t-33.5 38q0 11 67 34z" />
    <glyph glyph-name="Q" unicode="Q" horiz-adv-x="813" 
d="M362 611q-28 16 -43 16q-17 0 -42 -28q-48 -53 -120 -265q-26 -77 -26 -137q0 -37 6 -97q14 -129 34 -140q10 -5 24 -5q35 0 88 23t96 58q42 35 42 56q0 8 -3 18q-4 12 -4 18t9 13q12 10 26 10q19 0 23.5 18.5t7.5 111.5q4 113 13 139q6 17 6 34q0 28 -20 59
q-12 19 -49.5 50.5t-67.5 47.5zM271 670q15 8 34 11h1q23 0 85 -36.5t105 -75.5q30 -26 37 -41q11 -26 13 -150q0 -8 1 -77l2 -203l73 -46q76 -48 101 -60q19 -9 25 -15t8 -17q1 -4 1 -11q0 -15 -7.5 -24.5t-17.5 -9.5q-9 0 -18 9q-8 10 -21 10q-12 0 -38 22q-52 42 -94 64
l-35 18l-14 -17q-32 -36 -55 -59q-90 -89 -203 -89q-3 0 -9 0.5t-10 0.5q-132 7 -162 103q-19 58 -19 185q0 90 11 130q8 32 51 140.5t58 135.5q17 29 46 60t51 42z" />
    <glyph glyph-name="R" unicode="R" horiz-adv-x="575" 
d="M267 675q-28 11 -42 11q-25 0 -25 -27q0 -17 11 -48q25 -73 25 -135q0 -63 25 -63q18 0 61 12t64 22q45 23 45 80v12q-1 20 -5 28t-15 19q-18 16 -67.5 47t-76.5 42zM77 728q11 4 74 4q74 0 98 -5q60 -10 142.5 -65.5t105.5 -99.5t23 -114q0 -23 -5 -36q-9 -23 -65.5 -46
t-117.5 -28q-47 -4 -47 -9q0 -7 41 -71q50 -80 66.5 -121t26.5 -108q7 -46 7 -80q0 -56 -24 -56q-20 0 -37 119q-15 102 -45 161q-12 24 -41 68t-33 44q-16 0 -26 -186q-8 -144 -25 -212q-5 -20 -16 -20q-10 0 -40 15.5t-42 26.5q-11 10 -11 27q0 2 2 36q19 288 19 360v86
l-26 21q-25 21 -25 34q0 15 30 21q16 4 22 12t6 28q0 6 -2 34q-6 59 -14 80.5t-26 28.5q-11 5 -15 12q-1 2 -1 6q0 9 6.5 19t14.5 14z" />
    <glyph glyph-name="S" unicode="S" horiz-adv-x="762" 
d="M370 679q28 12 52 12q40 0 63 -36q10 -16 10 -29q0 -12 -9 -19q-8 -6 -14 -6q-14 0 -24 19q-9 16 -25 16q-17 0 -39 -19q-42 -35 -49 -89q-2 -13 -2 -34q0 -38 15 -44q6 -2 19 -2q23 0 53 3q26 3 47 3q47 0 80.5 -14.5t70.5 -48.5q36 -33 47.5 -56.5t15.5 -66.5
q4 -48 13 -76q12 -37 12 -56q0 -16 -10 -41q-18 -43 -41.5 -87.5t-33.5 -52.5q-25 -20 -124 -36q-54 -10 -98 -10q-45 0 -75 12q-66 28 -121.5 81.5t-120.5 152.5l-25 38l17 -3q60 -12 77.5 -18t28.5 -18q9 -9 53 -76q39 -61 52 -74t36 -13q53 0 126 16q28 6 45 18t35 38
q22 33 28.5 52.5t6.5 65.5q0 13 -2 75q-4 118 -6 122q-4 4 -101 4t-119 6q-19 5 -45 29q-34 31 -34 74q0 14 1 22q8 72 31.5 107t82.5 59z" />
    <glyph glyph-name="T" unicode="T" horiz-adv-x="536" 
d="M301 755q10 2 18 2q29 0 70.5 -9t62.5 -19q26 -12 26 -26q0 -4 -3 -7q-4 -4 -58 -8q-40 -2 -52 -6t-12 -19q0 -7 7 -44q15 -69 15 -174q0 -81 -9 -186q-28 -322 -52 -385q-5 -12 -23 -12q-16 0 -45 10t-41 20l-12 10l12 69q8 48 26 226q28 266 48 333q11 33 11 75
q0 34 -8 46q-6 9 -17.5 10.5t-72.5 1.5h-82l-26 16q-27 17 -27 25q0 12 102 24q43 5 90 15q10 2 22 5l20 5t10 2z" />
    <glyph glyph-name="U" unicode="U" horiz-adv-x="717" 
d="M129 698q14 14 40 14h27v-27q0 -42 -8 -141q-10 -137 -10 -251q0 -117 9 -153q11 -50 41 -102t56 -66q16 -9 39 -9q54 0 107 45l20 17l-24 36q-47 69 -51 119v9q0 6 1.5 8t8.5 2h8q38 -2 71 -53q16 -26 22 -26q3 0 6 4q5 8 17 90.5t16 131.5q6 76 6 199q0 94 1.5 114
t8.5 28q7 9 10 9.5t8 -6.5q26 -32 26 -211q0 -49 -3 -98q-3 -45 -18 -181.5t-15 -153.5q0 -11 34 -49q76 -83 76 -117q0 -11 -10 -11q-25 0 -90 59l-46 41l-26 -23q-60 -53 -108 -53q-23 0 -51 9q-69 22 -146 93t-114 145l-14 29v131q1 143 9 189q26 171 66 209z" />
    <glyph glyph-name="V" unicode="V" horiz-adv-x="639" 
d="M509 750q7 8 18 8q13 0 30 -10q18 -11 21.5 -18.5t3.5 -33.5q0 -43 -15.5 -99t-56.5 -162q-39 -99 -65 -186q-57 -198 -98.5 -288t-81.5 -104q-7 -3 -14 -3q-24 0 -69 44q-32 31 -43.5 55t-18.5 73q-9 70 -17 107q-18 89 -18 212q0 25 2 101q2 88 2 109q0 101 -19 142
q-13 29 -13 36q0 10 22 10q57 0 84 -96q8 -35 15 -150q13 -206 39 -361q14 -89 25 -89q8 0 67 206q45 154 114 320q61 147 86 177z" />
    <glyph glyph-name="W" unicode="W" horiz-adv-x="745" 
d="M351 749q3 5 9 5q8 0 18 -10q19 -19 39 -179q21 -163 21 -252q0 -74 -12 -161q-3 -22 3 -22q5 0 12.5 23t37.5 129q31 107 61 173q64 136 80 210q10 47 28 47q6 0 13 -4q28 -14 28 -84v-10q-1 -95 -43 -224q-22 -66 -56 -192q-35 -127 -59 -187t-68 -129q-38 -61 -67 -61
q-25 0 -54.5 25t-33.5 50q-1 4 -1 16q0 42 35 204q41 184 41 255q0 4 -0.5 11.5t-0.5 10.5q-4 72 -19 72q-27 0 -80 -258q-26 -130 -43.5 -188.5t-43.5 -100.5q-21 -35 -47 -35q-23 0 -64 26q-18 11 -24 17t-6 15q0 13 16 48q22 51 22 191q0 103 -12 259q-9 109 -9 193
q0 72 7 86q7 13 13.5 16.5t24.5 3.5q29 0 40 -16t19 -69q4 -29 18 -148.5t14 -127.5q0 -11 7 -2l8 16q7 19 77 135q30 50 39 77t9 71v12v17q0 43 3 46z" />
    <glyph glyph-name="X" unicode="X" horiz-adv-x="686" 
d="M211 604q12 0 50 -60.5t70 -131.5q20 -47 26 -47q1 2 45 57q35 43 88 95t81 71q26 16 43 16q10 0 13 -5q2 -4 2 -6q0 -18 -59 -78q-78 -80 -138 -196l-30 -55l36 -92q77 -191 77 -246q0 -8 -1 -11q-3 -12 -14 -12q-9 0 -38 16q-32 18 -47 41.5t-35 84.5
q-15 48 -38.5 102.5t-28.5 54.5q-3 0 -51 -97q-46 -90 -70 -123q-21 -29 -26 -47q-5 -19 -16 -33t-20 -14q-8 0 -42 30l-32 29l51 93q94 172 144 229q30 34 30 43q0 2 -2 8q-66 177 -85 222q-15 33 -15 46q0 5 13 10.5t19 5.5z" />
    <glyph glyph-name="Y" unicode="Y" horiz-adv-x="532" 
d="M71 772q15 13 21 13q10 0 26 -49.5t23 -105.5q1 -8 7 -49.5t9 -65.5q23 -167 34 -185q3 -5 7 -5q11 0 38 47t90 175q67 138 94.5 184.5t40.5 46.5h2q13 -2 13 -20q0 -33 -58 -188q-126 -336 -165 -382q-10 -11 -11.5 -25t-1.5 -85v-20q0 -111 -19 -172q-10 -31 -24 -31
q-8 0 -16 7q-13 10 -18 16t-9 30.5t-4.5 53.5t-0.5 102v158l-24 25q-24 24 -30 43q-4 15 -10 170q-4 129 -7 172.5t-12 87.5l-9 40z" />
    <glyph glyph-name="Z" unicode="Z" horiz-adv-x="820" 
d="M278 599q30 1 85.5 2.5t64.5 1.5h11q51 0 112.5 -4.5t74.5 -9.5q13 -6 13 -18t-13 -24l-14 -12l-140 -1q-214 -2 -214 -16q0 -6 15 -27t30 -36q18 -18 48 -42q97 -75 192 -163q58 -54 124 -123.5t80 -91.5q17 -26 17 -47q0 -10 -4 -17q-6 -10 -22 -10q-17 0 -84 12
q-38 8 -77 10q-7 1 -116 8q-40 4 -80 4q-18 0 -21 -1q-22 -4 -98 -43q-81 -40 -100 -40q-18 0 -50.5 14t-44.5 27l-11 11l21 18q21 18 71.5 45.5t84.5 39.5q35 12 70 12q6 0 78 -2q177 -6 219 -15q23 -5 31 -5q10 0 10 6t-15 23q-94 99 -124 124q-31 24 -82 72
q-52 47 -108 93q-45 36 -115.5 104t-78.5 83q-7 13 2 20q18 13 158 18z" />
    <glyph glyph-name="a" unicode="a" horiz-adv-x="685" 
d="M354 432q-12 5 -61 43q-7 0 -25 -16t-32 -34q-70 -89 -70 -184q0 -99 71 -198q21 -29 27 -30q2 -1 4 -1q5 0 8 1q22 4 79.5 35t80.5 51q22 19 30 36t8 43q0 16 -1 26q-6 69 -36 130q-38 78 -83 98zM355 652q3 3 6 3q6 0 28 -25q20 -22 37.5 -51t66.5 -125
q57 -110 71 -153t22 -138q12 -131 36 -244q6 -25 6 -44q0 -25 -11 -34q-4 -2 -5 -2q-5 0 -21 16q-16 18 -32.5 48t-16.5 42q0 9 -11 29t-18 20q-5 0 -36 -23q-66 -52 -120 -52q-75 0 -184 105q-81 78 -106 146q-12 33 -12 81q0 55 15 95q20 57 60.5 112t75.5 73q22 11 47 11
q20 0 65 -8q40 -6 41 -6q12 0 12 10q0 5 -9 39q-11 41 -11 60q0 12 4 15z" />
    <glyph glyph-name="b" unicode="b" horiz-adv-x="617" 
d="M376 382q-30 15 -47 15q-18 0 -39 -15q-41 -27 -58 -62t-21 -97t-9 -103q-3 -21 -3 -33q0 -20 8.5 -29t33.5 -20q59 -27 116 -27q51 0 76 45q16 29 29 94.5t13 112.5q0 23 -4 34q-6 17 -35.5 43.5t-59.5 41.5zM135 729q7 9 23 9q15 0 22 -17.5t10 -64.5q4 -52 8 -62
q3 -9 16 -76q9 -49 14 -63t17 -14q6 0 24 5q19 6 41 6q59 0 118.5 -38.5t90.5 -98.5q22 -43 32 -82.5t11 -97.5v-19q0 -121 -64 -176q-34 -31 -81 -31q-50 0 -159 32q-42 13 -68 13q-17 0 -23 -7q-6 -8 -13 -4h-1q-7 0 -21 -27q-12 -28 -22 -28t-30.5 16.5t-23.5 27.5
q-2 8 -2 19q0 10 2 26q0 4 4.5 50t8.5 77q7 74 17 126.5t35 150.5q20 79 20 131q0 39 -5 74q-7 65 -7 99q0 38 6 44z" />
    <glyph glyph-name="c" unicode="c" horiz-adv-x="477" 
d="M185 574q22 8 45 8q64 0 110 -43q32 -30 32 -68q0 -27 -20 -38q-14 -8 -28 1q-12 8 -12 18q0 8 1 14q0 2 0.5 6.5t0.5 5.5q0 15 -8 21.5t-31 11.5q-17 3 -28 3q-25 0 -41 -17q-10 -10 -22 -39.5t-14 -50.5q-2 -19 -11 -59q-6 -30 -6 -51q0 -15 3 -45q7 -76 24 -139
t34 -78q10 -10 29 -10q28 0 81 25q63 28 78 28q9 0 12 -5q7 -7 7 -25q0 -23 -13 -49q-38 -74 -111 -74q-50 0 -105 37q-86 57 -106 190q-5 35 -19 104q-12 54 -12 80q0 33 27 91q27 59 27 67q0 10 13 30t25 29q21 15 38 21z" />
    <glyph glyph-name="d" unicode="d" horiz-adv-x="628" 
d="M327 385q-33 13 -52 13q-29 0 -51 -21q-27 -25 -69.5 -97.5t-42.5 -92.5q0 -25 37 -103t57 -95q15 -12 27 -12q11 0 19 1q119 11 139 186q2 22 2 41q0 74 -12 119q-13 43 -54 61zM406 760q8 8 13 8q10 0 17 -16q8 -14 13 -107q12 -262 24 -353.5t47 -178.5
q51 -129 51 -197q0 -16 -3 -25q-4 -9 -7.5 -11t-12.5 0q-12 3 -44.5 34t-45.5 51q-11 19 -11 39v6q2 28 -1 28t-19 -29q-56 -98 -159 -104h-14q-48 0 -77 26t-65 100q-50 103 -56 176q0 3 -0.5 8t-0.5 7q0 27 13.5 52.5t60.5 87.5q41 55 58 72t33 20q3 1 14 1q49 0 118 -15
q16 -5 28 -5q6 0 8 2q6 6 8.5 161t9.5 162z" />
    <glyph glyph-name="e" unicode="e" horiz-adv-x="677" 
d="M264 351q-12 12 -34 12q-11 0 -19 -4q-14 -8 -14 -17q0 -7 11 -20q10 -11 18 -11q1 0 13 2q34 8 34 23q0 8 -9 15zM183 419q20 7 33 7q14 0 35 -7q53 -19 89 -65q21 -27 21 -43q0 -13 -16 -32q-18 -20 -37 -27.5t-60 -11.5q-41 -3 -52 -10t-11 -33q0 -3 0.5 -10t0.5 -12
q2 -39 15 -63t51 -59q72 -66 126 -66q33 0 60.5 33.5t84.5 144.5q34 66 53 91.5t34 25.5q10 0 10 -20q0 -53 -56 -170q-47 -98 -83 -133.5t-88 -35.5t-111 31t-108 84q-30 33 -43.5 63.5t-17.5 74.5q-4 45 -8 56q-3 9 -26 18q-23 11 -23 22q0 10 14 18q40 25 51 59
q8 24 25.5 43.5t36.5 26.5z" />
    <glyph glyph-name="f" unicode="f" horiz-adv-x="566" 
d="M237 758q27 11 61 11q77 0 141.5 -55.5t69.5 -132.5q1 -8 1 -23q0 -64 -33 -64q-18 0 -38.5 32t-24.5 67q-6 48 -26.5 76t-48.5 28q-17 0 -36 -13q-36 -24 -40 -77q0 -3 -0.5 -9t-0.5 -8q0 -20 7 -31t28 -26q27 -20 37 -30t13 -22q1 -3 1 -7q0 -21 -34 -21q-16 0 -22 -10
q-4 -8 -4 -108v-29q0 -61 -7.5 -101t-42.5 -167q-49 -179 -49 -222v-16h-57q-41 0 -50.5 2t-15.5 11q-7 10 -7 32q0 5 2 37q3 52 15 104.5t48 173.5q40 138 46 168q9 40 9 84q0 32 -6 46q-13 31 -52 31q-21 0 -43 14.5t-22 27.5q0 4 3 7q6 6 52 8l48 1l-4 58q-2 30 -2 39
q0 32 7.5 49t26.5 34q25 21 50 31z" />
    <glyph glyph-name="g" unicode="g" horiz-adv-x="650" 
d="M351 502q-10 7 -27 7q-21 0 -37 -10q-39 -25 -76 -101q-38 -78 -38 -137q0 -54 31 -94q20 -25 36 -25q12 0 26 17q11 14 22 34q14 28 51 124.5t38 110.5v7q0 18 -8 39t-18 28zM357 703q6 2 18 2q47 0 84.5 -73t72.5 -234q19 -86 36 -150q28 -106 28 -219q0 -7 -0.5 -21.5
t-0.5 -22.5q-2 -81 -10 -106t-39 -53l-29 -26h-234l-46 25q-54 29 -54 42q0 11 44 11q61 0 93 -26q11 -10 24 -10q14 0 45 20q43 29 55.5 54.5t12.5 82.5q0 41 -5.5 103.5t-10.5 70.5q-4 6 -10 -6q-1 -3 -4 -9q-27 -63 -139 -84q-15 -3 -32 -3q-54 0 -107.5 28.5t-79.5 72.5
q-10 17 -12 29.5t-2 54.5q1 84 27 148q18 44 55 93.5t61 61.5q11 7 55 11q76 7 100 37q10 11 10 34q0 18 -7 29q-7 13 -7 22q0 8 8 11z" />
    <glyph glyph-name="h" unicode="h" horiz-adv-x="690" 
d="M113 767q0 12 13 12q15 0 49 -17q47 -23 64 -64t22 -140q4 -71 9 -80q4 -10 24 -10q35 0 118.5 -18.5t118.5 -34.5q34 -16 60.5 -60.5t38.5 -104.5q6 -32 6 -85q0 -79 -12 -163q-11 -75 -21.5 -103.5t-29.5 -28.5q-4 0 -12 2q-17 5 -46 21.5t-39 27.5l-12 13l9 43
q24 123 26 245v68l-21 38q-24 43 -41 51.5t-91 12.5q-43 3 -71 3h-4q-7 0 -9 -0.5t-2 -4.5q0 -30 8 -136q11 -141 11 -270q0 -72 -5 -90q-5 -16 -12 -21.5t-23 -5.5q-11 0 -22 6.5t-11 13.5q-8 287 -35 420l-4 18h-54l-54 1l-2 14q-2 9 8 22t45 49q55 56 60 69q2 8 2 14
q0 27 -35 166q-24 96 -24 107z" />
    <glyph glyph-name="i" unicode="i" horiz-adv-x="342" 
d="M141 608q28 11 57 11q33 0 49 -12q41 -27 41 -77q0 -32 -19 -57q-11 -15 -13.5 -24t-2.5 -31q0 -36 7 -94q15 -115 15 -253v-41q-2 -66 -6 -88.5t-15 -22.5q-23 1 -59 28t-36 44q0 13 13 89q17 94 17 195q0 43 -3 84q-6 74 -10 86.5t-21 12.5h-11q-39 1 -63.5 17.5
t-24.5 42.5q0 14 7 28q8 16 31.5 35t46.5 27z" />
    <glyph glyph-name="j" unicode="j" horiz-adv-x="512" 
d="M65 625q9 13 23 13q18 0 63 -22q40 -20 67 -44t27 -39q0 -23 53 -69q44 -37 85 -123t61 -181q13 -63 13 -149q0 -26 -2 -32q-5 -17 -29.5 -41t-46.5 -34q-23 -9 -49 -9q-62 0 -140 51q-39 27 -54 47q-16 22 -26 57.5t-10 63.5q0 33 14 33q11 0 37 -30t31 -47
q2 -6 6.5 -21.5t5.5 -21.5q4 -19 23 -40t39 -32q18 -10 45 -10q35 0 86 46l19 17l-11 73q-22 140 -53 220q-31 82 -76.5 132.5t-86.5 50.5q-15 0 -53 20q-39 20 -54 41q-16 24 -16 48q0 19 9 32z" />
    <glyph glyph-name="k" unicode="k" horiz-adv-x="552" 
d="M103 746q6 7 14 7q24 0 40 -54q15 -55 24 -171q10 -143 21 -164q4 -9 13 -9q10 0 33 14q50 31 114 128q64 98 86 111q18 10 25 10q9 0 16 -12q6 -9 6 -23q0 -28 -28 -85q-52 -102 -127 -176l-52 -49l46 -52q71 -79 91 -118q7 -14 24 -82t17 -83q0 -34 -23 -34
q-34 0 -55 103q-11 51 -27 80t-59 74q-29 30 -40.5 39t-21.5 9q-13 0 -24.5 -10t-16.5 -26q-4 -13 -11 -138q-7 -124 -13 -139q-2 -5 -3 -7t-3 -3t-4 0l-6 3q-17 9 -51 44t-42 53q-5 12 -7 19.5t-3.5 27.5t-1.5 59v47q0 130 9 163q16 64 22 260q5 169 18 184z" />
    <glyph glyph-name="l" unicode="l" horiz-adv-x="263" 
d="M106 651q2 4 20 4t31 -14q53 -58 53 -218q0 -66 -8 -126q-9 -73 -11 -184q-2 -200 -12 -215q-1 -3 -6 -3q-14 0 -75 45l-44 32l3 120q4 126 12 182q5 34 9 86q1 10 14 85q11 58 13 132q1 38 1 74z" />
    <glyph glyph-name="m" unicode="m" horiz-adv-x="754" 
d="M125 584q7 9 14 9q6 0 14.5 -11.5t8.5 -20.5t8 -9q10 0 39 15q28 15 40 15q11 0 35 -18.5t40 -38.5q19 -23 38 -64l19 -39q2 0 31 38q35 46 78 73t77 27q22 0 38 -14q40 -37 60.5 -160.5t30.5 -384.5q4 -108 4 -118q0 -42 -5.5 -52t-22.5 -10q-43 0 -53 51t-14 286
q-4 220 -8 255q-12 96 -48 96q-10 0 -22 -6q-17 -8 -43.5 -44.5t-42.5 -73.5q-16 -38 -16 -73v-23v-11q0 -50 -9 -126q-10 -83 -10 -127q0 -32 4 -44q4 -13 24 -26q17 -10 17 -20q0 -7 -1 -11q-3 -15 -13.5 -26.5t-20.5 -11.5q-3 0 -4 1q-11 4 -28 18t-24 14q-5 0 -16 -18
q-7 -11 -12 -14.5t-16 -3.5q-36 0 -36 38q0 32 19 96q21 77 28 118.5t10 110.5q1 18 1 48q0 48 -6 76t-24 66q-15 31 -38 60t-33 29q-17 0 -28 -54.5t-27 -219.5q-16 -170 -16 -224q0 -45 12 -68q9 -18 9 -23t-7 -12q-38 -41 -87 -41q-19 0 -29 10t-10 36q0 43 30 210
q17 92 22 147t8 165q4 126 11 133z" />
    <glyph glyph-name="n" unicode="n" horiz-adv-x="546" 
d="M63 525q7 5 16 5q8 0 18 -5q22 -10 47 -78q29 -77 39 -77q4 0 8 18q6 29 54 64.5t89 40.5h9q55 0 91 -25q13 -10 18.5 -28.5t10.5 -74.5q10 -97 20 -280t10 -248q0 -17 -1 -20l-3 -17h-36q-23 0 -30 2t-12 10q-6 10 -7 257q0 325 -20 356q-12 15 -38 15q-11 0 -24 -5
q-14 -6 -31.5 -25t-29.5 -42q-12 -22 -12 -66q0 -12 4 -72q2 -32 2 -36q0 -19 -13 -49q-24 -55 -35 -138q-10 -74 -21 -104t-30 -30q-13 0 -35 14q-22 13 -29 35q-10 31 -10 80q0 70 20 148q14 54 14 96q0 61 -34 167q-26 81 -26 99q0 8 7 13z" />
    <glyph glyph-name="o" unicode="o" horiz-adv-x="585" 
d="M304 489q-11 11 -24 11q-20 0 -42.5 -20.5t-37.5 -55.5q-22 -50 -46 -145t-24 -133q0 -26 17 -64q23 -48 70 -100t67 -52q18 0 68 34.5t63 55.5q10 16 13 56q5 62 32 144l19 55l-22 44q-35 69 -58 98.5t-56 45.5q-30 15 -39 26zM239 544q38 12 60 12q23 0 48 -12
q46 -21 100 -91t73 -132q9 -29 9 -58q0 -42 -20 -111q-15 -51 -21 -108q-5 -55 -21.5 -78t-95.5 -90l-47 -39l-42 23q-45 24 -68 41t-50 45q-65 70 -93 136q-16 36 -16 80q0 46 18 115q16 61 37 125t31 81q20 35 98 61z" />
    <glyph glyph-name="p" unicode="p" horiz-adv-x="528" 
d="M332 573q-19 9 -51 9q-20 0 -32 -5q-13 -7 -19 -23t-10 -57q-8 -89 -25 -112q-17 -21 -17 -39q0 -15 7 -42q18 -77 40 -96q6 -6 9 -6t21 19q21 25 49 77q31 57 61 103q21 32 26.5 44.5t5.5 28.5q0 23 -6 39t-23.5 34t-35.5 26zM70 654q10 3 20 3q28 0 44 -19
q12 -13 21 -13t40 12q18 7 45 7q17 0 28 -1q86 -4 130 -44q22 -19 42 -62t28 -84q4 -24 4 -51q0 -53 -15 -53q-14 0 -47 -93q-31 -87 -54.5 -121.5t-56.5 -34.5q-27 0 -81 27q-40 20 -45 20h-1q-1 -1 -1 -28q0 -55 3 -143q3 -89 3 -144q0 -27 -1 -28q-1 -4 -48 -4h-46l-7 22
q-4 12 -4 99q0 119 6.5 296t14.5 262q7 63 7 93v11q0 11 -3 15t-14 10q-27 14 -27 29q0 11 15 17z" />
    <glyph glyph-name="q" unicode="q" horiz-adv-x="583" 
d="M361 690q-12 6 -31 6q-23 0 -44 -9q-40 -18 -57 -82q-8 -33 -36 -102q-27 -70 -27 -95q0 -16 7 -27q23 -46 71 -46q38 0 69 32q37 38 51 154q7 62 20 99l11 35l-11 14q-12 16 -23 21zM259 751q21 6 47 6q49 0 85 -18q31 -16 44 -16q10 0 23 8q9 6 13 6t14 -7
q14 -11 27 -36q13 -28 15 -86v-21q0 -85 -35 -234q-17 -74 -27 -126q-6 -36 -6 -91q0 -77 11 -149q11 -73 11 -128v-59h-96l-12 20q-12 21 -17 50.5t-12 113.5q-20 254 -28 262q-3 3 -38 12q-45 12 -70 21q-42 15 -45 16q-19 4 -49 35.5t-43 59.5q-12 24 -14 89q-1 20 -1 43
q0 16 3 16q1 0 3 -2q2 -1 3 -2q7 -6 9.5 -6t8.5 6t43 72q43 77 68.5 104.5t64.5 40.5z" />
    <glyph glyph-name="r" unicode="r" horiz-adv-x="595" 
d="M161 518q0 33 21 33q14 0 30.5 -9.5t18.5 -19.5q5 -23 50 -23q96 0 180 -68q30 -24 54 -55.5t24 -47.5q0 -24 -23 -24t-53 23t-46 56q-12 24 -24 31t-46 7h-23q-35 -2 -42.5 -3t-7.5 -6q0 -10 2 -27t2 -25q0 -28 -10 -81q-28 -137 -35 -258q-4 -75 -14 -96l-6 -10.5
t-6.5 -5.5t-8.5 -2.5t-15 -1.5h-6q-33 0 -45 28.5t-12 107.5q0 7 0.5 22.5t0.5 24.5q4 116 11 162q7 54 7 67q0 18 -6 26.5t-22 19.5q-54 34 -54 46q0 7 38 36q66 50 66 73z" />
    <glyph glyph-name="s" unicode="s" horiz-adv-x="691" 
d="M259 468q25 7 59 7q63 0 118.5 -21.5t55.5 -48.5q0 -20 -18 -20q-19 0 -77 26q-49 22 -79 22q-16 0 -23 -7q-9 -9 -9 -39q0 -35 10 -46q7 -9 20.5 -11.5t71.5 -4.5q82 -4 121.5 -17t75.5 -49q28 -28 38 -51t12 -65q1 -10 1 -30q0 -71 -24.5 -113.5t-76.5 -62.5
q-71 -27 -141 -27q-50 0 -111 12q-147 29 -176 59q-14 14 -30.5 48.5t-20.5 55.5q0 2 -0.5 4t-0.5 3q0 13 13 20.5t48 15.5q17 4 33 4q17 0 28.5 -9t26.5 -33q20 -30 42 -50q49 -42 139 -72q31 -10 40 -10q7 0 15 4q14 8 38.5 35t34.5 46q10 20 10 47q0 29 -11 64
q-10 34 -37.5 62.5t-62.5 42.5q-28 11 -83 11h-40h-36q-57 0 -70 6.5t-15 32.5v8q0 37 16 77.5t36 56.5q10 9 39 17z" />
    <glyph glyph-name="t" unicode="t" horiz-adv-x="451" 
d="M154 665q12 4 21 4q18 0 27 -27l6 -20l31 2h10q21 0 25 -4q2 -4 2 -8q0 -17 -29 -30q-28 -13 -33 -18q-9 -8 -9 -33t11 -83l11 -56l-11 -107q-8 -72 -8 -108q0 -13 2 -33q6 -41 18.5 -66t27.5 -25q18 0 25 39q4 25 16 34t41 9q31 0 42.5 -12t13.5 -47v-10
q0 -54 -28 -108.5t-56 -54.5q-14 0 -47 18.5t-55 38.5q-52 46 -84 126q-10 26 -12 42t-2 66q0 71 14 133q13 56 13 98q0 36 -10 73q-10 39 -18 51.5t-24 12.5h-6q-9 -1 -14.5 -0.5t-7 3t-1.5 8.5q0 11 12.5 23.5t30.5 18.5q19 6 29 26q9 18 26 24z" />
    <glyph glyph-name="u" unicode="u" horiz-adv-x="627" 
d="M62 507q19 31 29 31q13 0 23.5 -39t27.5 -137q18 -110 22 -116q4 -4 8 -28q7 -46 27.5 -104.5t40.5 -89.5q22 -36 45 -36q9 0 20 6q17 10 18 31v6q0 16 -33 67q-33 52 -35 73v7q0 8 3 9.5t16 3.5q2 0 4.5 0.5t3.5 0.5q11 0 35 -24q19 -21 25 -21h1q4 4 8 108
q6 173 15 206q5 15 19 32.5t22 17.5q24 0 33 -255q6 -191 21 -227q7 -16 26 -26.5t40 -10.5q7 0 11 1q6 1 15 1q10 0 14 -9q4 -7 4 -18q0 -24 -12 -39q-9 -9 -26 -9q-25 0 -64 16q-34 13 -45 13q-16 0 -44 -22q-29 -23 -61 -23q-52 0 -113 61q-48 49 -75.5 121.5
t-50.5 214.5q-13 80 -18 92q-6 12 -6 56q0 49 6 59z" />
    <glyph glyph-name="v" unicode="v" horiz-adv-x="512" 
d="M70 573q10 9 18 9q11 0 26 -27q32 -59 73 -182t60 -217q13 -68 23 -68q5 0 12 7q32 29 73.5 149t53.5 217q11 86 31 86q11 0 14.5 -19t3.5 -74q0 -105 -24 -185q-29 -97 -98.5 -231.5t-89.5 -134.5q-26 0 -66 45q-19 20 -19 33q0 6 1 10q0 1 0.5 5t0.5 7q0 69 -25 215
q-22 130 -45 191q-37 95 -37 131q0 22 14 33z" />
    <glyph glyph-name="w" unicode="w" horiz-adv-x="730" 
d="M614 567q4 6 9 6q11 0 20 -21q33 -75 33 -273q0 -162 -25 -258q-11 -44 -37 -85t-42 -41l-1 1h-2q-14 5 -65 162q-27 84 -42.5 118.5t-48.5 88.5q-25 39 -32 39q-6 0 -6 -28q0 -36 -33.5 -148.5t-63.5 -175.5q-34 -74 -76 -74q-16 0 -33 11q-24 16 -33.5 45t-15.5 104
q-9 119 -49 347q-15 85 -15 129q0 33 8 39q5 4 8 1t10 -18q35 -79 80 -354q19 -112 21 -114q4 -7 10 -4.5t11 11.5q6 14 22 71q48 172 71.5 240t41.5 86q13 13 25 13q16 0 19 -19q11 -50 65 -148q74 -135 105 -226q9 -23 16 -23q13 0 23 53q7 34 17 374q2 65 5 71z" />
    <glyph glyph-name="x" unicode="x" horiz-adv-x="632" 
d="M510 487q28 39 41 39q4 0 4 -8q0 -13 -13 -42q-23 -49 -90 -127q-88 -102 -88 -125q0 -15 23 -50q19 -30 39 -73q23 -53 41 -81t80 -109q28 -35 28 -53q0 -14 -20 -14q-8 0 -13 1q-40 6 -80 36.5t-66 74.5q-19 31 -39 92q-32 97 -53 97q-11 0 -28 -32
q-10 -20 -56.5 -80.5t-65.5 -79.5q-17 -17 -25 -17q-5 0 -12 3q-18 7 -18 19q0 9 13 35q14 28 56.5 89.5t65.5 87.5l23 24l-9 17q-8 14 -51 63q-91 104 -115.5 133.5t-24.5 39.5q0 3 1 5q3 8 12 8q30 0 161 -128l80 -79l30 40q19 26 84.5 97t84.5 97z" />
    <glyph glyph-name="y" unicode="y" horiz-adv-x="479" 
d="M59 541q3 7 18 5q8 -1 12.5 -6.5t10.5 -23.5q19 -56 40 -170q14 -72 25 -72q7 0 37 27.5t54 55.5q34 41 54 75q39 64 77 93q23 17 30 17q6 0 6 -7q0 -12 -15 -45q-24 -54 -70 -125t-90 -122l-6 -6q-34 -39 -38 -55q-1 -5 -1 -12q0 -13 20 -86q16 -56 36.5 -144t23.5 -115
l3 -25h-50q-49 0 -52 5t-14 73q-36 238 -72 276q-7 7 -10 22.5t-8 67.5q-10 112 -15 146q-9 74 -9 122q0 23 3 29z" />
    <glyph glyph-name="z" unicode="z" horiz-adv-x="655" 
d="M84 410q5 1 22 1q55 0 180 -11q118 -9 130 -19q6 -5 6 -12q0 -12 -11 -18q-10 -4 -38 -4q-60 0 -150 12q-45 6 -67 6q-33 0 -33 -18q0 -32 183 -141q67 -39 170 -119q24 -19 50 -32q21 -11 45.5 -34t27.5 -35q4 -11 -4 -20q-5 -6 -28 -7.5t-118 -1.5q-96 0 -129.5 -2
t-91.5 -12q-75 -13 -110 -13h-6q-23 1 -28 3.5t-9 12.5q-6 15 2 28q5 10 15 12.5t52 4.5q72 4 142 17q92 14 120 17q37 4 37 10q0 7 -67 56.5t-124 84.5q-109 67 -151 114q-45 50 -45 87q0 29 28 33z" />
    <glyph glyph-name="nbsp" unicode="&#xa0;" 
 />
  </font>
</defs>
</svg>
